{
    "asset" : {
        "generator" : "Khronos glTF Blender I/O v3.4.50",
        "version" : "2.0"
    },
    "scene" : 0,
    "scenes" : [
        {
            "name" : "Scene",
            "nodes" : [
                0
            ]
        }
    ],
    "nodes" : [
        {
            "mesh" : 0,
            "name" : "Capsule"
        }
    ],
    "meshes" : [
        {
            "name" : "Capsule",
            "primitives" : [
                {
                    "attributes" : {
                        "POSITION" : 0,
                        "TEXCOORD_0" : 1,
                        "NORMAL" : 2
                    },
                    "indices" : 3
                }
            ]
        }
    ],
    "accessors" : [
        {
            "bufferView" : 0,
            "componentType" : 5126,
            "count" : 782,
            "max" : [
                0.5,
                0.9975000619888306,
                0.5
            ],
            "min" : [
                -0.5,
                -0.9975000619888306,
                -0.4999999701976776
            ],
            "type" : "VEC3"
        },
        {
            "bufferView" : 1,
            "componentType" : 5126,
            "count" : 782,
            "type" : "VEC2"
        },
        {
            "bufferView" : 2,
            "componentType" : 5126,
            "count" : 782,
            "type" : "VEC3"
        },
        {
            "bufferView" : 3,
            "componentType" : 5123,
            "count" : 3840,
            "type" : "SCALAR"
        }
    ],
    "bufferViews" : [
        {
            "buffer" : 0,
            "byteLength" : 9384,
            "byteOffset" : 0,
            "target" : 34962
        },
        {
            "buffer" : 0,
            "byteLength" : 6256,
            "byteOffset" : 9384,
            "target" : 34962
        },
        {
            "buffer" : 0,
            "byteLength" : 9384,
            "byteOffset" : 15640,
            "target" : 34962
        },
        {
            "buffer" : 0,
            "byteLength" : 7680,
            "byteOffset" : 25024,
            "target" : 34963
        }
    ],
    "buffers" : [
        {
            "byteLength" : 32704,
            "uri" : "data:application/octet-stream;base64,"
        }
    ]
}
