{
    "asset" : {
        "generator" : "Khronos glTF Blender I/O v3.4.50",
        "version" : "2.0"
    },
    "scene" : 0,
    "scenes" : [
        {
            "name" : "Scene",
            "nodes" : [
                0
            ]
        }
    ],
    "nodes" : [
        {
            "mesh" : 0,
            "name" : "Sphere"
        }
    ],
    "meshes" : [
        {
            "name" : "Sphere.001",
            "primitives" : [
                {
                    "attributes" : {
                        "POSITION" : 0,
                        "TEXCOORD_0" : 1,
                        "NORMAL" : 2
                    },
                    "indices" : 3
                }
            ]
        }
    ],
    "accessors" : [
        {
            "bufferView" : 0,
            "componentType" : 5126,
            "count" : 1537,
            "max" : [
                0.49999985098838806,
                0.5,
                0.49999964237213135
            ],
            "min" : [
                -0.4999994933605194,
                -0.5,
                -0.5
            ],
            "type" : "VEC3"
        },
        {
            "bufferView" : 1,
            "componentType" : 5126,
            "count" : 1537,
            "type" : "VEC2"
        },
        {
            "bufferView" : 2,
            "componentType" : 5126,
            "count" : 1537,
            "type" : "VEC3"
        },
        {
            "bufferView" : 3,
            "componentType" : 5123,
            "count" : 8400,
            "type" : "SCALAR"
        }
    ],
    "bufferViews" : [
        {
            "buffer" : 0,
            "byteLength" : 18444,
            "byteOffset" : 0,
            "target" : 34962
        },
        {
            "buffer" : 0,
            "byteLength" : 12296,
            "byteOffset" : 18444,
            "target" : 34962
        },
        {
            "buffer" : 0,
            "byteLength" : 18444,
            "byteOffset" : 30740,
            "target" : 34962
        },
        {
            "buffer" : 0,
            "byteLength" : 16800,
            "byteOffset" : 49184,
            "target" : 34963
        }
    ],
    "buffers" : [
        {
            "byteLength" : 65984,
            "uri" : "data:application/octet-stream;base64,"
        }
    ]
}
