{
    "asset" : {
        "generator" : "Khronos glTF Blender I/O v3.4.50",
        "version" : "2.0"
    },
    "scene" : 0,
    "scenes" : [
        {
            "name" : "Scene",
            "nodes" : [
                0
            ]
        }
    ],
    "nodes" : [
        {
            "mesh" : 0,
            "name" : "Teapot"
        }
    ],
    "meshes" : [
        {
            "name" : "Teapot",
            "primitives" : [
                {
                    "attributes" : {
                        "POSITION" : 0,
                        "TEXCOORD_0" : 1,
                        "NORMAL" : 2
                    },
                    "indices" : 3
                }
            ]
        }
    ],
    "accessors" : [
        {
            "bufferView" : 0,
            "componentType" : 5126,
            "count" : 8622,
            "max" : [
                0.6868000030517578,
                0.33000004291534424,
                0.4000000059604645
            ],
            "min" : [
                -0.6000000238418579,
                -0.30000001192092896,
                -0.4000000059604645
            ],
            "type" : "VEC3"
        },
        {
            "bufferView" : 1,
            "componentType" : 5126,
            "count" : 8622,
            "type" : "VEC2"
        },
        {
            "bufferView" : 2,
            "componentType" : 5126,
            "count" : 8622,
            "type" : "VEC3"
        },
        {
            "bufferView" : 3,
            "componentType" : 5123,
            "count" : 42840,
            "type" : "SCALAR"
        }
    ],
    "bufferViews" : [
        {
            "buffer" : 0,
            "byteLength" : 103464,
            "byteOffset" : 0,
            "target" : 34962
        },
        {
            "buffer" : 0,
            "byteLength" : 68976,
            "byteOffset" : 103464,
            "target" : 34962
        },
        {
            "buffer" : 0,
            "byteLength" : 103464,
            "byteOffset" : 172440,
            "target" : 34962
        },
        {
            "buffer" : 0,
            "byteLength" : 85680,
            "byteOffset" : 275904,
            "target" : 34963
        }
    ],
    "buffers" : [
        {
            "byteLength" : 361584,
            "uri" : "data:application/octet-stream;base64,"
        }
    ]
}
